<svg width="16" height="16" viewBox="0 0 16 16" fill="none" xmlns="http://www.w3.org/2000/svg">
<path id="coins" d="M11.3333 0C10.138 0 9.05469 0.223959 8.20833 0.645833C7.36198 1.06771 6.66667 1.75521 6.66667 2.66667V5.33333C6.66667 5.41927 6.69531 5.5026 6.70833 5.58333C6.08854 5.42188 5.40104 5.33333 4.66667 5.33333C3.47135 5.33333 2.38802 5.55729 1.54167 5.97917C0.695313 6.40104 0 7.08854 0 8V13.3333C0 14.2448 0.695313 14.9323 1.54167 15.3542C2.38802 15.776 3.47135 16 4.66667 16C5.86198 16 6.94531 15.776 7.79167 15.3542C8.63802 14.9323 9.33333 14.2448 9.33333 13.3333V13.0625C9.94531 13.224 10.6146 13.3333 11.3333 13.3333C12.5286 13.3333 13.612 13.1094 14.4583 12.6875C15.3047 12.2656 16 11.5781 16 10.6667V2.66667C16 1.75521 15.3047 1.06771 14.4583 0.645833C13.612 0.223959 12.5286 0 11.3333 0ZM11.3333 1.33333C12.349 1.33333 13.2526 1.55208 13.8542 1.85417C14.4557 2.15625 14.6667 2.47396 14.6667 2.66667C14.6667 2.85938 14.4557 3.17708 13.8542 3.47917C13.2526 3.78125 12.349 4 11.3333 4C10.3177 4 9.41406 3.78125 8.8125 3.47917C8.21094 3.17708 8 2.85938 8 2.66667C8 2.47396 8.21094 2.15625 8.8125 1.85417C9.41406 1.55208 10.3177 1.33333 11.3333 1.33333ZM8 4.5625C8.07031 4.60156 8.13542 4.65104 8.20833 4.6875C9.05469 5.10938 10.138 5.33333 11.3333 5.33333C12.5286 5.33333 13.612 5.10938 14.4583 4.6875C14.5312 4.65104 14.5964 4.60156 14.6667 4.5625V5.33333C14.6667 5.52604 14.4557 5.84375 13.8542 6.14583C13.2526 6.44792 12.349 6.66667 11.3333 6.66667C10.3177 6.66667 9.41406 6.44792 8.8125 6.14583C8.21094 5.84375 8 5.52604 8 5.33333V4.5625ZM4.66667 6.66667C5.68229 6.66667 6.58594 6.88542 7.1875 7.1875C7.78906 7.48958 8 7.80729 8 8C8 8.19271 7.78906 8.51042 7.1875 8.8125C6.58594 9.11458 5.68229 9.33333 4.66667 9.33333C3.65104 9.33333 2.7474 9.11458 2.14583 8.8125C1.54427 8.51042 1.33333 8.19271 1.33333 8C1.33333 7.80729 1.54427 7.48958 2.14583 7.1875C2.7474 6.88542 3.65104 6.66667 4.66667 6.66667ZM14.6667 7.22917V8C14.6667 8.19271 14.4557 8.51042 13.8542 8.8125C13.2526 9.11458 12.349 9.33333 11.3333 9.33333C10.5755 9.33333 9.89063 9.20833 9.33333 9.02083V8C9.33333 7.91406 9.30469 7.83073 9.29167 7.75C9.91146 7.91146 10.599 8 11.3333 8C12.5286 8 13.612 7.77604 14.4583 7.35417C14.5312 7.31771 14.5964 7.26823 14.6667 7.22917ZM1.33333 9.89583C1.40365 9.9349 1.46875 9.98438 1.54167 10.0208C2.38802 10.4427 3.47135 10.6667 4.66667 10.6667C5.86198 10.6667 6.94531 10.4427 7.79167 10.0208C7.86458 9.98438 7.92969 9.9349 8 9.89583V10.6667C8 10.8594 7.78906 11.1771 7.1875 11.4792C6.58594 11.7812 5.68229 12 4.66667 12C3.65104 12 2.7474 11.7812 2.14583 11.4792C1.54427 11.1771 1.33333 10.8594 1.33333 10.6667V9.89583ZM14.6667 9.89583V10.6667C14.6667 10.8594 14.4557 11.1771 13.8542 11.4792C13.2526 11.7812 12.349 12 11.3333 12C10.5755 12 9.89063 11.8932 9.33333 11.7083V10.4167C9.94531 10.5781 10.612 10.6667 11.3333 10.6667C12.5286 10.6667 13.612 10.4427 14.4583 10.0208C14.5312 9.98438 14.5964 9.9349 14.6667 9.89583ZM1.33333 12.5625C1.40365 12.6016 1.46875 12.651 1.54167 12.6875C2.38802 13.1094 3.47135 13.3333 4.66667 13.3333C5.86198 13.3333 6.94531 13.1094 7.79167 12.6875C7.86458 12.651 7.92969 12.6016 8 12.5625V13.3333C8 13.526 7.78906 13.8438 7.1875 14.1458C6.58594 14.4479 5.68229 14.6667 4.66667 14.6667C3.65104 14.6667 2.7474 14.4479 2.14583 14.1458C1.54427 13.8438 1.33333 13.526 1.33333 13.3333V12.5625Z" fill="#808797"/>
</svg>
