<svg width="16" height="18" viewBox="0 0 16 18" fill="none" xmlns="http://www.w3.org/2000/svg">
<path id="headset" d="M8 0C3.60227 0 0 3.42909 0 7.61539V11.7692C0 12.6644 0.613636 13.427 1.45455 13.7163V13.8462C1.45455 15.7473 3.09375 17.3077 5.09091 17.3077H6.02273C6.27557 17.7215 6.7358 18 7.27273 18H8.72727C9.52841 18 10.1818 17.378 10.1818 16.6154C10.1818 15.8528 9.52841 15.2308 8.72727 15.2308H7.27273C6.7358 15.2308 6.27557 15.5093 6.02273 15.9231H5.09091C3.88636 15.9231 2.90909 14.9928 2.90909 13.8462H4.36364V7.61539H1.45455C1.45455 4.1863 4.39773 1.38462 8 1.38462C11.6023 1.38462 14.5455 4.1863 14.5455 7.61539H11.6364V13.8462H13.8182C15.0142 13.8462 16 12.9078 16 11.7692V7.61539C16 3.42909 12.3977 0 8 0ZM1.45455 9H2.90909V12.4615H2.18182C1.77841 12.4615 1.45455 12.1532 1.45455 11.7692V9ZM13.0909 9H14.5455V11.7692C14.5455 12.1532 14.2216 12.4615 13.8182 12.4615H13.0909V9Z" fill="#9097A7"/>
</svg>
