<svg width="16" height="16" viewBox="0 0 16 16" fill="none" xmlns="http://www.w3.org/2000/svg">
<path id="moon" d="M1.22929 0V1.3932H0V2.78639H1.22929V4.17959H2.45858V2.78639H3.68788V1.3932H2.45858V0H1.22929ZM10.6218 2.04626L9.60384 2.0898C6.31933 2.22313 3.68788 5.27891 3.68788 9.03401C3.68788 12.8735 6.44658 16 9.83433 16C13.1477 16 15.8439 13.0177 15.9616 9.29524L16 8.16327L15.0972 8.64218C14.617 8.90068 14.084 9.03401 13.5222 9.03401C11.479 9.03401 9.83433 7.17007 9.83433 4.85442C9.83433 4.21769 9.97119 3.63537 10.1993 3.09116L10.6218 2.04626ZM8.83553 3.70068C8.7587 4.08708 8.60504 4.44082 8.60504 4.85442C8.60504 7.92381 10.8139 10.4272 13.5222 10.4272C13.8944 10.4272 14.2113 10.2558 14.5594 10.166C14.0912 12.6912 12.2065 14.6068 9.83433 14.6068C7.11164 14.6068 4.91717 12.1197 4.91717 9.03401C4.91717 6.35102 6.61225 4.23673 8.83553 3.70068Z" fill="white"/>
</svg>
