<svg width="16" height="18" viewBox="0 0 16 18" fill="none" xmlns="http://www.w3.org/2000/svg">
<path id="notification" d="M8 0C7.11562 0 6.4 0.619291 6.4 1.38462C6.4 1.44411 6.41563 1.5009 6.425 1.55769C3.65938 2.16887 1.6 4.34315 1.6 6.92308V13.1538C1.6 13.546 1.25312 13.8462 0.8 13.8462H0V15.2308H5.75C5.65938 15.4498 5.6 15.6797 5.6 15.9231C5.6 17.0616 6.68438 18 8 18C9.31563 18 10.4 17.0616 10.4 15.9231C10.4 15.6797 10.3406 15.4498 10.25 15.2308H16V13.8462H15.2C14.7469 13.8462 14.4 13.546 14.4 13.1538V7.11779C14.4 4.51623 12.3906 2.19591 9.575 1.55769C9.58438 1.5009 9.6 1.44411 9.6 1.38462C9.6 0.619291 8.88438 0 8 0ZM7.65 2.76923C7.76562 2.76112 7.88125 2.76923 8 2.76923C8.05 2.76923 8.1 2.76923 8.15 2.76923C10.7625 2.83684 12.8 4.81911 12.8 7.11779V13.1538C12.8 13.3972 12.8594 13.6271 12.95 13.8462H3.05C3.14062 13.6271 3.2 13.3972 3.2 13.1538V6.92308C3.2 4.72446 5.15625 2.92608 7.65 2.76923ZM8 15.2308C8.45 15.2308 8.8 15.5337 8.8 15.9231C8.8 16.3125 8.45 16.6154 8 16.6154C7.55 16.6154 7.2 16.3125 7.2 15.9231C7.2 15.5337 7.55 15.2308 8 15.2308Z" fill="#9097A7"/>
</svg>
