<svg width="16" height="16" viewBox="0 0 16 16" fill="none" xmlns="http://www.w3.org/2000/svg">
<path id="rocket" d="M14.7058 0C14.2747 0 13.6741 0.0193705 13.0395 0.0774818C11.7704 0.196126 10.3052 0.409201 9.39698 1.31719C8.63408 2.0799 7.05742 4.10412 5.59944 6.00484C5.31123 6.38015 5.32334 6.37288 5.05693 6.72155L3.99129 6.66344C3.19933 6.62228 2.43643 6.95642 1.93752 7.57385L0.639382 9.16223L0 9.97579L1.00751 10.1695L3.04191 10.5763L5.42506 12.9588L5.83194 14.9927L6.04507 16L6.83945 15.3608L8.42822 14.063C9.0458 13.5642 9.38003 12.8015 9.33885 12.0097L9.28073 10.9637C9.64159 10.6901 9.62948 10.6973 10.017 10.4019C11.923 8.94189 13.955 7.3753 14.7058 6.6247C15.6067 5.72397 15.8078 4.23729 15.9264 2.96368C16.0451 1.69007 15.9846 0.600484 15.9846 0.600484L15.9652 0.0387409L15.4033 0.0193705C15.4033 0.0193705 15.1369 0 14.7058 0ZM14.1439 1.23971C14.3909 1.23971 14.5653 1.25424 14.7445 1.25908C14.7518 1.61985 14.7663 1.99516 14.6864 2.84746C14.5774 4.02179 14.219 5.3293 13.8145 5.73366C13.2623 6.28571 11.1601 7.95884 9.26135 9.41404C7.58298 10.6998 6.40109 11.6029 6.06444 11.8547L4.16567 9.95642C4.41997 9.61501 5.28943 8.42857 6.5682 6.76029C8.02134 4.86683 9.69972 2.75787 10.2689 2.18886C10.6927 1.76513 11.986 1.40678 13.1558 1.29782C13.5796 1.25908 13.8969 1.23971 14.1439 1.23971ZM11.3151 3.42857C10.6225 3.42857 10.0751 3.99516 10.0751 4.68765C10.0751 5.38015 10.6225 5.94673 11.3151 5.94673C12.0078 5.94673 12.5745 5.38015 12.5745 4.68765C12.5745 3.99516 12.0078 3.42857 11.3151 3.42857ZM3.91379 7.90315L4.1463 7.92252C3.77332 8.41646 3.163 9.20823 3.08066 9.31719L2.24753 9.14286L2.88691 8.36804C3.13636 8.06053 3.5166 7.88136 3.91379 7.90315ZM2.4994 11.1186C1.96901 11.6489 1.66627 12.3826 1.45314 12.9976C1.24001 13.6126 1.14314 14.1211 1.14314 14.1211L0.949386 15.0315L1.86002 14.8571C1.86002 14.8571 2.35409 14.7724 2.96441 14.5666C3.57473 14.3608 4.30856 14.0557 4.86318 13.5012L3.99129 12.6295C3.7152 12.9056 3.16785 13.1477 2.67378 13.3269C2.86269 12.8111 3.13879 12.2252 3.37129 11.9903L2.4994 11.1186ZM8.07947 11.8547L8.09884 12.0872C8.12064 12.4843 7.96321 12.8644 7.65321 13.1138L6.85883 13.753L6.68445 12.9201C6.79344 12.8402 7.5854 12.2252 8.07947 11.8547Z" fill="#808797"/>
</svg>
