<svg width="16" height="16" viewBox="0 0 16 16" fill="none" xmlns="http://www.w3.org/2000/svg">
<path id="settings" d="M6.22222 0L6.12346 0.5L5.74815 2.32692C5.14568 2.55769 4.60247 2.88221 4.10864 3.26923L2.27161 2.65385L1.77778 2.5L1.52099 2.94231L0.25679 5.05769L0 5.5L0.375309 5.82692L1.79753 7.03846C1.74568 7.35337 1.67901 7.66827 1.67901 8C1.67901 8.33173 1.74568 8.64664 1.79753 8.96154L0.375309 10.1731L0 10.5L0.25679 10.9423L1.52099 13.0577L1.77778 13.5L2.27161 13.3462L4.10864 12.7308C4.60247 13.1178 5.14568 13.4423 5.74815 13.6731L6.12346 15.5L6.22222 16H9.77778L9.87654 15.5L10.2519 13.6731C10.8543 13.4423 11.3975 13.1178 11.8914 12.7308L13.7284 13.3462L14.2222 13.5L14.479 13.0577L15.7432 10.9423L16 10.5L15.6247 10.1731L14.2025 8.96154C14.2543 8.64664 14.321 8.33173 14.321 8C14.321 7.66827 14.2543 7.35337 14.2025 7.03846L15.6247 5.82692L16 5.5L15.7432 5.05769L14.479 2.94231L14.2222 2.5L13.7284 2.65385L11.8914 3.26923C11.3975 2.88221 10.8543 2.55769 10.2519 2.32692L9.87654 0.5L9.77778 0H6.22222ZM7.24938 1.23077H8.75062L9.06667 2.82692L9.14568 3.19231L9.50124 3.30769C10.2198 3.52644 10.8716 3.89663 11.4173 4.38462L11.6938 4.63462L12.0494 4.51923L13.6494 3.98077L14.4 5.23077L13.1358 6.32692L12.8395 6.55769L12.9383 6.92308C13.0198 7.27404 13.0568 7.63221 13.0568 8C13.0568 8.36779 13.0198 8.72596 12.9383 9.07692L12.8593 9.44231L13.1358 9.67308L14.4 10.7692L13.6494 12.0192L12.0494 11.4808L11.6938 11.3654L11.4173 11.6154C10.8716 12.1034 10.2198 12.4736 9.50124 12.6923L9.14568 12.8077L9.06667 13.1731L8.75062 14.7692H7.24938L6.93333 13.1731L6.85432 12.8077L6.49877 12.6923C5.78025 12.4736 5.1284 12.1034 4.58272 11.6154L4.30617 11.3654L3.95062 11.4808L2.35062 12.0192L1.6 10.7692L2.8642 9.67308L3.16049 9.44231L3.06173 9.07692C2.98025 8.72596 2.94321 8.36779 2.94321 8C2.94321 7.63221 2.98025 7.27404 3.06173 6.92308L3.16049 6.55769L2.8642 6.32692L1.6 5.23077L2.35062 3.98077L3.95062 4.51923L4.30617 4.63462L4.58272 4.38462C5.1284 3.89663 5.78025 3.52644 6.49877 3.30769L6.85432 3.19231L6.93333 2.82692L7.24938 1.23077ZM8 4.92308C6.26173 4.92308 4.83951 6.30769 4.83951 8C4.83951 9.69231 6.26173 11.0769 8 11.0769C9.73827 11.0769 11.1605 9.69231 11.1605 8C11.1605 6.30769 9.73827 4.92308 8 4.92308ZM8 6.15385C9.05432 6.15385 9.8963 6.97356 9.8963 8C9.8963 9.02644 9.05432 9.84615 8 9.84615C6.94568 9.84615 6.1037 9.02644 6.1037 8C6.1037 6.97356 6.94568 6.15385 8 6.15385Z" fill="#9097A7"/>
</svg>
