<svg width="16" height="16" viewBox="0 0 16 16" fill="none" xmlns="http://www.w3.org/2000/svg">
<path id="Vector" d="M7.33333 0V8H8.66667V0H7.33333ZM5.33333 0.458333C2.23177 1.5599 0 4.52344 0 8C0 12.4115 3.58854 16 8 16C12.4115 16 16 12.4115 16 8C16 4.52344 13.7682 1.5599 10.6667 0.458333V1.89583C13.0182 2.92708 14.6667 5.27344 14.6667 8C14.6667 11.6771 11.6771 14.6667 8 14.6667C4.32292 14.6667 1.33333 11.6771 1.33333 8C1.33333 5.27344 2.98177 2.92708 5.33333 1.89583V0.458333Z" fill="#9097A7"/>
</svg>
