<svg width="16" height="16" viewBox="0 0 16 16" fill="none" xmlns="http://www.w3.org/2000/svg">
<path id="wallet" d="M12.6458 0.000134985C12.5443 0.00273896 12.4375 0.0157602 12.3333 0.0418013L1.5 2.89594C0.625 3.12511 0 3.92719 0 4.83343V14C0 15.0964 0.903646 16 2 16H14C15.0964 16 16 15.0964 16 14V5.33342C16 4.23708 15.0964 3.33344 14 3.33344H5.08333L12.6667 1.33346V2.66678H14V1.33346C14 0.583463 13.362 -0.0102816 12.6458 0.000134985ZM2 4.66676H14C14.3776 4.66676 14.6667 4.95582 14.6667 5.33342V14C14.6667 14.3776 14.3776 14.6667 14 14.6667H2C1.6224 14.6667 1.33333 14.3776 1.33333 14V5.33342C1.33333 4.95582 1.6224 4.66676 2 4.66676ZM12.3333 8.66673C11.7812 8.66673 11.3333 9.11464 11.3333 9.66672C11.3333 10.2188 11.7812 10.6667 12.3333 10.6667C12.8854 10.6667 13.3333 10.2188 13.3333 9.66672C13.3333 9.11464 12.8854 8.66673 12.3333 8.66673Z" fill="#808797"/>
</svg>
